# xmcd CD database file
#
# Track frame offsets:
#	150
#	16525
#	35545
#
# Disc length: 676 seconds
#
# Revision: 7
# Processed by: cddbd v1.5.2PL0 Copyright (c) Steve Scherf et al.
# Submitted via: CDex 1.70beta3
#
DISCID=1402a203
DTITLE=B'z - MY LONELY TOWN
DYEAR=2009
DGENRE=Rock
TTITLE0=MY LONELY TOWN
TTITLE1=綺麗な涙
TTITLE2=イチブトゼンブ -Ballad Version-
EXTD=YEAR: 2009
EXTT0=
EXTT1=
EXTT2=
PLAYORDER=
